<svg xmlns="http://www.w3.org/2000/svg" xmlns:xlink="http://www.w3.org/1999/xlink" width="500" zoomAndPan="magnify" viewBox="0 0 375 374.999991" height="500" preserveAspectRatio="xMidYMid meet" version="1.0"><defs><g/><clipPath id="46c1926302"><path d="M 91.84375 37.5 L 265 37.5 L 265 273.75 L 91.84375 273.75 Z M 91.84375 37.5 " clip-rule="nonzero"/></clipPath></defs><rect x="-37.5" width="450" fill="#ffffff" y="-37.499999" height="449.999989" fill-opacity="1"/><rect x="-37.5" width="450" fill="#ffffff" y="-37.499999" height="449.999989" fill-opacity="1"/><path fill="#000000" d="M 275.929688 193.363281 L 275.492188 193.203125 C 274.515625 194.597656 273.507812 195.949219 272.464844 197.261719 C 255.730469 218.34375 230.863281 228.886719 205.914062 229.117188 C 205.632812 229.121094 205.355469 229.121094 205.074219 229.121094 C 197.925781 229.121094 190.777344 228.277344 183.820312 226.582031 L 183.820312 240.078125 C 186.75 240.328125 189.695312 240.453125 192.644531 240.453125 C 197.074219 240.453125 201.503906 240.175781 205.914062 239.605469 C 233.125 236.105469 259.402344 221.617188 277.703125 194.03125 Z M 275.929688 193.363281 " fill-opacity="1" fill-rule="nonzero"/><g clip-path="url(#46c1926302)"><path fill="#000000" d="M 181.964844 264.003906 C 180.085938 260.1875 179.039062 254.734375 179.039062 246.816406 L 179.039062 214.484375 L 195.058594 214.484375 C 198.828125 214.484375 202.445312 214.257812 205.910156 213.824219 C 277.011719 204.914062 283.082031 108.425781 223.628906 85.203125 C 221.140625 84.230469 218.539062 83.386719 215.816406 82.683594 C 209.515625 81.050781 202.59375 80.171875 195.058594 80.195312 L 136.234375 80.195312 C 148.664062 81.855469 156.945312 84.339844 156.945312 107 L 156.945312 214.960938 C 133.597656 199.628906 116.695312 171.808594 116.695312 131.308594 C 116.695312 69.136719 157.570312 41.78125 194.851562 41.78125 C 223.910156 41.78125 250.59375 58.632812 252.945312 88.703125 C 253.21875 92.171875 253.167969 95.820312 252.757812 99.636719 C 252.703125 100.152344 252.636719 100.667969 252.570312 101.1875 L 252.875 99.78125 L 255.085938 89.6875 L 261.40625 60.84375 C 240.695312 45.09375 216.945312 37.632812 193.75 37.632812 C 141 37.632812 91.84375 76.320312 91.84375 140.148438 C 91.84375 187.898438 120.652344 221.078125 156.949219 234.195312 L 156.949219 246.8125 C 156.949219 269.472656 148.664062 271.960938 136.238281 273.617188 L 199.757812 273.617188 C 191.847656 272.539062 185.460938 271.109375 181.964844 264.003906 Z M 179.042969 105.890625 C 179.042969 99.371094 179.464844 94.648438 180.40625 91.242188 C 182.414062 83.964844 186.796875 82.683594 194.507812 82.683594 L 195.058594 82.683594 C 201.539062 82.683594 207.34375 84.078125 212.472656 86.574219 C 253.683594 106.644531 251.335938 198.011719 205.914062 210.570312 C 202.535156 211.5 198.917969 212 195.058594 212 L 179.042969 212 Z M 179.042969 105.890625 " fill-opacity="1" fill-rule="nonzero"/></g><g fill="#000000" fill-opacity="1"><g transform="translate(89.398306, 308.474041)"><g><path d="M 8.1875 0.21875 C 6.8125 0.21875 5.597656 -0.0664062 4.546875 -0.640625 C 3.492188 -1.210938 2.664062 -2.078125 2.0625 -3.234375 C 1.46875 -4.390625 1.171875 -5.8125 1.171875 -7.5 C 1.171875 -9.1875 1.46875 -10.601562 2.0625 -11.75 C 2.664062 -12.90625 3.492188 -13.769531 4.546875 -14.34375 C 5.597656 -14.914062 6.8125 -15.203125 8.1875 -15.203125 C 9.632812 -15.203125 10.859375 -14.921875 11.859375 -14.359375 C 12.867188 -13.796875 13.59375 -12.9375 14.03125 -11.78125 L 11.859375 -10.453125 L 11.609375 -10.46875 C 11.285156 -11.25 10.847656 -11.804688 10.296875 -12.140625 C 9.742188 -12.484375 9.039062 -12.65625 8.1875 -12.65625 C 6.945312 -12.65625 5.976562 -12.242188 5.28125 -11.421875 C 4.582031 -10.597656 4.234375 -9.289062 4.234375 -7.5 C 4.234375 -5.707031 4.582031 -4.398438 5.28125 -3.578125 C 5.976562 -2.753906 6.945312 -2.34375 8.1875 -2.34375 C 10.132812 -2.34375 11.328125 -3.289062 11.765625 -5.1875 L 12.03125 -5.1875 L 14.21875 -4.046875 C 13.800781 -2.628906 13.097656 -1.5625 12.109375 -0.84375 C 11.117188 -0.132812 9.8125 0.21875 8.1875 0.21875 Z M 8.1875 0.21875 "/></g></g></g><g fill="#000000" fill-opacity="1"><g transform="translate(104.094201, 308.474041)"><g><path d="M 6.578125 0.21875 C 5.460938 0.21875 4.488281 -0.0078125 3.65625 -0.46875 C 2.820312 -0.925781 2.171875 -1.59375 1.703125 -2.46875 C 1.242188 -3.34375 1.015625 -4.40625 1.015625 -5.65625 C 1.015625 -6.894531 1.242188 -7.953125 1.703125 -8.828125 C 2.171875 -9.710938 2.820312 -10.382812 3.65625 -10.84375 C 4.488281 -11.300781 5.460938 -11.53125 6.578125 -11.53125 C 7.679688 -11.53125 8.648438 -11.300781 9.484375 -10.84375 C 10.328125 -10.382812 10.976562 -9.710938 11.4375 -8.828125 C 11.90625 -7.953125 12.140625 -6.894531 12.140625 -5.65625 C 12.140625 -4.40625 11.90625 -3.34375 11.4375 -2.46875 C 10.976562 -1.59375 10.328125 -0.925781 9.484375 -0.46875 C 8.648438 -0.0078125 7.679688 0.21875 6.578125 0.21875 Z M 6.578125 -2.1875 C 8.328125 -2.1875 9.203125 -3.34375 9.203125 -5.65625 C 9.203125 -6.84375 8.976562 -7.710938 8.53125 -8.265625 C 8.082031 -8.828125 7.429688 -9.109375 6.578125 -9.109375 C 4.816406 -9.109375 3.9375 -7.957031 3.9375 -5.65625 C 3.9375 -3.34375 4.816406 -2.1875 6.578125 -2.1875 Z M 6.578125 -2.1875 "/></g></g></g><g fill="#000000" fill-opacity="1"><g transform="translate(117.232372, 308.474041)"><g><path d="M 1.625 0 L 1.625 -11.3125 L 4.390625 -11.3125 L 4.390625 -9.625 L 4.609375 -9.59375 C 4.878906 -10.21875 5.234375 -10.675781 5.671875 -10.96875 C 6.117188 -11.257812 6.660156 -11.40625 7.296875 -11.40625 C 7.941406 -11.40625 8.429688 -11.296875 8.765625 -11.078125 L 8.28125 -8.640625 L 8.0625 -8.59375 C 7.882812 -8.664062 7.707031 -8.71875 7.53125 -8.75 C 7.363281 -8.789062 7.15625 -8.8125 6.90625 -8.8125 C 6.113281 -8.8125 5.507812 -8.53125 5.09375 -7.96875 C 4.675781 -7.414062 4.46875 -6.523438 4.46875 -5.296875 L 4.46875 0 Z M 1.625 0 "/></g></g></g><g fill="#000000" fill-opacity="1"><g transform="translate(126.097057, 308.474041)"><g><path d="M 3.046875 -12.65625 C 2.535156 -12.65625 2.117188 -12.8125 1.796875 -13.125 C 1.472656 -13.4375 1.3125 -13.835938 1.3125 -14.328125 C 1.3125 -14.816406 1.472656 -15.21875 1.796875 -15.53125 C 2.117188 -15.84375 2.535156 -16 3.046875 -16 C 3.390625 -16 3.691406 -15.925781 3.953125 -15.78125 C 4.222656 -15.632812 4.429688 -15.4375 4.578125 -15.1875 C 4.722656 -14.9375 4.796875 -14.648438 4.796875 -14.328125 C 4.796875 -14.015625 4.722656 -13.726562 4.578125 -13.46875 C 4.429688 -13.21875 4.222656 -13.019531 3.953125 -12.875 C 3.691406 -12.726562 3.390625 -12.65625 3.046875 -12.65625 Z M 1.625 0 L 1.625 -11.3125 L 4.46875 -11.3125 L 4.46875 0 Z M 1.625 0 "/></g></g></g><g fill="#000000" fill-opacity="1"><g transform="translate(132.184478, 308.474041)"><g><path d="M 1.625 0 L 1.625 -11.3125 L 4.359375 -11.3125 L 4.359375 -9.65625 L 4.578125 -9.59375 C 5.273438 -10.882812 6.414062 -11.53125 8 -11.53125 C 9.300781 -11.53125 10.257812 -11.171875 10.875 -10.453125 C 11.488281 -9.742188 11.796875 -8.710938 11.796875 -7.359375 L 11.796875 0 L 8.953125 0 L 8.953125 -7 C 8.953125 -7.75 8.800781 -8.289062 8.5 -8.625 C 8.195312 -8.957031 7.71875 -9.125 7.0625 -9.125 C 6.238281 -9.125 5.597656 -8.859375 5.140625 -8.328125 C 4.691406 -7.804688 4.46875 -6.984375 4.46875 -5.859375 L 4.46875 0 Z M 1.625 0 "/></g></g></g><g fill="#000000" fill-opacity="1"><g transform="translate(145.425131, 308.474041)"><g><path d="M 1.625 0 L 1.625 -11.3125 L 4.359375 -11.3125 L 4.359375 -9.65625 L 4.578125 -9.59375 C 5.273438 -10.882812 6.414062 -11.53125 8 -11.53125 C 9.300781 -11.53125 10.257812 -11.171875 10.875 -10.453125 C 11.488281 -9.742188 11.796875 -8.710938 11.796875 -7.359375 L 11.796875 0 L 8.953125 0 L 8.953125 -7 C 8.953125 -7.75 8.800781 -8.289062 8.5 -8.625 C 8.195312 -8.957031 7.71875 -9.125 7.0625 -9.125 C 6.238281 -9.125 5.597656 -8.859375 5.140625 -8.328125 C 4.691406 -7.804688 4.46875 -6.984375 4.46875 -5.859375 L 4.46875 0 Z M 1.625 0 "/></g></g></g><g fill="#000000" fill-opacity="1"><g transform="translate(158.665783, 308.474041)"><g><path d="M 11.171875 -5.015625 L 3.90625 -5.015625 C 3.988281 -4.023438 4.269531 -3.304688 4.75 -2.859375 C 5.226562 -2.410156 5.878906 -2.1875 6.703125 -2.1875 C 7.359375 -2.1875 7.882812 -2.304688 8.28125 -2.546875 C 8.6875 -2.796875 9.015625 -3.164062 9.265625 -3.65625 L 9.46875 -3.65625 L 11.359375 -2.453125 C 10.992188 -1.660156 10.4375 -1.015625 9.6875 -0.515625 C 8.945312 -0.0234375 7.953125 0.21875 6.703125 0.21875 C 5.535156 0.21875 4.523438 -0.00390625 3.671875 -0.453125 C 2.828125 -0.898438 2.171875 -1.5625 1.703125 -2.4375 C 1.242188 -3.3125 1.015625 -4.382812 1.015625 -5.65625 C 1.015625 -6.9375 1.253906 -8.015625 1.734375 -8.890625 C 2.222656 -9.773438 2.878906 -10.4375 3.703125 -10.875 C 4.535156 -11.3125 5.46875 -11.53125 6.5 -11.53125 C 8.101562 -11.53125 9.328125 -11.101562 10.171875 -10.25 C 11.023438 -9.40625 11.453125 -8.160156 11.453125 -6.515625 C 11.453125 -5.921875 11.429688 -5.460938 11.390625 -5.140625 Z M 8.734375 -6.84375 C 8.710938 -7.707031 8.515625 -8.335938 8.140625 -8.734375 C 7.765625 -9.128906 7.21875 -9.328125 6.5 -9.328125 C 5.0625 -9.328125 4.21875 -8.5 3.96875 -6.84375 Z M 8.734375 -6.84375 "/></g></g></g><g fill="#000000" fill-opacity="1"><g transform="translate(170.953361, 308.474041)"><g/></g></g><g fill="#000000" fill-opacity="1"><g transform="translate(175.90324, 308.474041)"><g><path d="M 7.734375 -14.984375 C 8.816406 -14.984375 9.738281 -14.785156 10.5 -14.390625 C 11.257812 -14.003906 11.832031 -13.457031 12.21875 -12.75 C 12.613281 -12.039062 12.8125 -11.21875 12.8125 -10.28125 C 12.8125 -9.34375 12.613281 -8.519531 12.21875 -7.8125 C 11.832031 -7.113281 11.257812 -6.566406 10.5 -6.171875 C 9.738281 -5.785156 8.816406 -5.59375 7.734375 -5.59375 L 4.90625 -5.59375 L 4.90625 0 L 1.953125 0 L 1.953125 -14.984375 Z M 7.359375 -7.9375 C 9.003906 -7.9375 9.828125 -8.71875 9.828125 -10.28125 C 9.828125 -11.851562 9.003906 -12.640625 7.359375 -12.640625 L 4.90625 -12.640625 L 4.90625 -7.9375 Z M 7.359375 -7.9375 "/></g></g></g><g fill="#000000" fill-opacity="1"><g transform="translate(189.594813, 308.474041)"><g><path d="M 3.046875 -12.65625 C 2.535156 -12.65625 2.117188 -12.8125 1.796875 -13.125 C 1.472656 -13.4375 1.3125 -13.835938 1.3125 -14.328125 C 1.3125 -14.816406 1.472656 -15.21875 1.796875 -15.53125 C 2.117188 -15.84375 2.535156 -16 3.046875 -16 C 3.390625 -16 3.691406 -15.925781 3.953125 -15.78125 C 4.222656 -15.632812 4.429688 -15.4375 4.578125 -15.1875 C 4.722656 -14.9375 4.796875 -14.648438 4.796875 -14.328125 C 4.796875 -14.015625 4.722656 -13.726562 4.578125 -13.46875 C 4.429688 -13.21875 4.222656 -13.019531 3.953125 -12.875 C 3.691406 -12.726562 3.390625 -12.65625 3.046875 -12.65625 Z M 1.625 0 L 1.625 -11.3125 L 4.46875 -11.3125 L 4.46875 0 Z M 1.625 0 "/></g></g></g><g fill="#000000" fill-opacity="1"><g transform="translate(195.682234, 308.474041)"><g><path d="M 6.578125 0.21875 C 5.460938 0.21875 4.488281 -0.0078125 3.65625 -0.46875 C 2.820312 -0.925781 2.171875 -1.59375 1.703125 -2.46875 C 1.242188 -3.34375 1.015625 -4.40625 1.015625 -5.65625 C 1.015625 -6.894531 1.242188 -7.953125 1.703125 -8.828125 C 2.171875 -9.710938 2.820312 -10.382812 3.65625 -10.84375 C 4.488281 -11.300781 5.460938 -11.53125 6.578125 -11.53125 C 7.679688 -11.53125 8.648438 -11.300781 9.484375 -10.84375 C 10.328125 -10.382812 10.976562 -9.710938 11.4375 -8.828125 C 11.90625 -7.953125 12.140625 -6.894531 12.140625 -5.65625 C 12.140625 -4.40625 11.90625 -3.34375 11.4375 -2.46875 C 10.976562 -1.59375 10.328125 -0.925781 9.484375 -0.46875 C 8.648438 -0.0078125 7.679688 0.21875 6.578125 0.21875 Z M 6.578125 -2.1875 C 8.328125 -2.1875 9.203125 -3.34375 9.203125 -5.65625 C 9.203125 -6.84375 8.976562 -7.710938 8.53125 -8.265625 C 8.082031 -8.828125 7.429688 -9.109375 6.578125 -9.109375 C 4.816406 -9.109375 3.9375 -7.957031 3.9375 -5.65625 C 3.9375 -3.34375 4.816406 -2.1875 6.578125 -2.1875 Z M 6.578125 -2.1875 "/></g></g></g><g fill="#000000" fill-opacity="1"><g transform="translate(208.820405, 308.474041)"><g><path d="M 1.625 0 L 1.625 -11.3125 L 4.390625 -11.3125 L 4.390625 -9.625 L 4.609375 -9.59375 C 4.878906 -10.21875 5.234375 -10.675781 5.671875 -10.96875 C 6.117188 -11.257812 6.660156 -11.40625 7.296875 -11.40625 C 7.941406 -11.40625 8.429688 -11.296875 8.765625 -11.078125 L 8.28125 -8.640625 L 8.0625 -8.59375 C 7.882812 -8.664062 7.707031 -8.71875 7.53125 -8.75 C 7.363281 -8.789062 7.15625 -8.8125 6.90625 -8.8125 C 6.113281 -8.8125 5.507812 -8.53125 5.09375 -7.96875 C 4.675781 -7.414062 4.46875 -6.523438 4.46875 -5.296875 L 4.46875 0 Z M 1.625 0 "/></g></g></g><g fill="#000000" fill-opacity="1"><g transform="translate(217.68509, 308.474041)"><g><path d="M 1.625 0 L 1.625 -15.859375 L 4.46875 -15.859375 L 4.46875 -7.0625 L 4.75 -7.0625 L 8.015625 -11.3125 L 10.90625 -11.3125 L 10.90625 -11.078125 L 7.0625 -6.109375 L 11.328125 -0.25 L 11.328125 0 L 8.34375 0 L 4.75 -4.765625 L 4.46875 -4.765625 L 4.46875 0 Z M 1.625 0 "/></g></g></g><g fill="#000000" fill-opacity="1"><g transform="translate(229.029834, 308.474041)"><g><path d="M 6.578125 0.21875 C 5.460938 0.21875 4.488281 -0.0078125 3.65625 -0.46875 C 2.820312 -0.925781 2.171875 -1.59375 1.703125 -2.46875 C 1.242188 -3.34375 1.015625 -4.40625 1.015625 -5.65625 C 1.015625 -6.894531 1.242188 -7.953125 1.703125 -8.828125 C 2.171875 -9.710938 2.820312 -10.382812 3.65625 -10.84375 C 4.488281 -11.300781 5.460938 -11.53125 6.578125 -11.53125 C 7.679688 -11.53125 8.648438 -11.300781 9.484375 -10.84375 C 10.328125 -10.382812 10.976562 -9.710938 11.4375 -8.828125 C 11.90625 -7.953125 12.140625 -6.894531 12.140625 -5.65625 C 12.140625 -4.40625 11.90625 -3.34375 11.4375 -2.46875 C 10.976562 -1.59375 10.328125 -0.925781 9.484375 -0.46875 C 8.648438 -0.0078125 7.679688 0.21875 6.578125 0.21875 Z M 6.578125 -2.1875 C 8.328125 -2.1875 9.203125 -3.34375 9.203125 -5.65625 C 9.203125 -6.84375 8.976562 -7.710938 8.53125 -8.265625 C 8.082031 -8.828125 7.429688 -9.109375 6.578125 -9.109375 C 4.816406 -9.109375 3.9375 -7.957031 3.9375 -5.65625 C 3.9375 -3.34375 4.816406 -2.1875 6.578125 -2.1875 Z M 6.578125 -2.1875 "/></g></g></g><g fill="#000000" fill-opacity="1"><g transform="translate(242.168006, 308.474041)"><g><path d="M 5.296875 0.21875 C 4.515625 0.21875 3.800781 0.128906 3.15625 -0.046875 C 2.519531 -0.234375 1.972656 -0.484375 1.515625 -0.796875 C 1.066406 -1.117188 0.734375 -1.484375 0.515625 -1.890625 L 2.09375 -3.59375 L 2.3125 -3.59375 C 2.6875 -3.09375 3.128906 -2.710938 3.640625 -2.453125 C 4.148438 -2.203125 4.707031 -2.078125 5.3125 -2.078125 C 5.863281 -2.078125 6.28125 -2.175781 6.5625 -2.375 C 6.84375 -2.570312 6.984375 -2.859375 6.984375 -3.234375 C 6.984375 -3.515625 6.878906 -3.753906 6.671875 -3.953125 C 6.472656 -4.148438 6.148438 -4.300781 5.703125 -4.40625 L 4.203125 -4.765625 C 3.078125 -5.035156 2.253906 -5.441406 1.734375 -5.984375 C 1.222656 -6.535156 0.96875 -7.238281 0.96875 -8.09375 C 0.96875 -8.789062 1.144531 -9.398438 1.5 -9.921875 C 1.863281 -10.441406 2.375 -10.835938 3.03125 -11.109375 C 3.6875 -11.390625 4.445312 -11.53125 5.3125 -11.53125 C 6.332031 -11.53125 7.175781 -11.378906 7.84375 -11.078125 C 8.507812 -10.785156 9.03125 -10.394531 9.40625 -9.90625 L 7.890625 -8.265625 L 7.6875 -8.265625 C 7.375 -8.617188 7.019531 -8.878906 6.625 -9.046875 C 6.238281 -9.210938 5.800781 -9.296875 5.3125 -9.296875 C 4.1875 -9.296875 3.625 -8.945312 3.625 -8.25 C 3.625 -7.945312 3.726562 -7.703125 3.9375 -7.515625 C 4.144531 -7.335938 4.515625 -7.191406 5.046875 -7.078125 L 6.4375 -6.765625 C 7.582031 -6.523438 8.421875 -6.128906 8.953125 -5.578125 C 9.484375 -5.035156 9.75 -4.304688 9.75 -3.390625 C 9.75 -2.671875 9.570312 -2.035156 9.21875 -1.484375 C 8.863281 -0.941406 8.347656 -0.519531 7.671875 -0.21875 C 7.003906 0.0703125 6.210938 0.21875 5.296875 0.21875 Z M 5.296875 0.21875 "/></g></g></g><g fill="#000000" fill-opacity="1"><g transform="translate(252.590414, 308.474041)"><g><path d="M 1.625 0 L 1.625 -15.859375 L 4.46875 -15.859375 L 4.46875 -7.0625 L 4.75 -7.0625 L 8.015625 -11.3125 L 10.90625 -11.3125 L 10.90625 -11.078125 L 7.0625 -6.109375 L 11.328125 -0.25 L 11.328125 0 L 8.34375 0 L 4.75 -4.765625 L 4.46875 -4.765625 L 4.46875 0 Z M 1.625 0 "/></g></g></g><g fill="#000000" fill-opacity="1"><g transform="translate(263.935159, 308.474041)"><g><path d="M 3.046875 -12.65625 C 2.535156 -12.65625 2.117188 -12.8125 1.796875 -13.125 C 1.472656 -13.4375 1.3125 -13.835938 1.3125 -14.328125 C 1.3125 -14.816406 1.472656 -15.21875 1.796875 -15.53125 C 2.117188 -15.84375 2.535156 -16 3.046875 -16 C 3.390625 -16 3.691406 -15.925781 3.953125 -15.78125 C 4.222656 -15.632812 4.429688 -15.4375 4.578125 -15.1875 C 4.722656 -14.9375 4.796875 -14.648438 4.796875 -14.328125 C 4.796875 -14.015625 4.722656 -13.726562 4.578125 -13.46875 C 4.429688 -13.21875 4.222656 -13.019531 3.953125 -12.875 C 3.691406 -12.726562 3.390625 -12.65625 3.046875 -12.65625 Z M 1.625 0 L 1.625 -11.3125 L 4.46875 -11.3125 L 4.46875 0 Z M 1.625 0 "/></g></g></g><g fill="#000000" fill-opacity="1"><g transform="translate(140.281115, 332.47404)"><g><path d="M 2.890625 0.171875 C 2.359375 0.171875 1.878906 0.0820312 1.453125 -0.09375 C 1.035156 -0.269531 0.679688 -0.507812 0.390625 -0.8125 C 0.0976562 -1.113281 -0.113281 -1.453125 -0.25 -1.828125 L 0.640625 -2.671875 L 0.828125 -2.671875 C 0.960938 -2.179688 1.222656 -1.789062 1.609375 -1.5 C 1.992188 -1.21875 2.484375 -1.078125 3.078125 -1.078125 C 3.796875 -1.078125 4.367188 -1.269531 4.796875 -1.65625 C 5.234375 -2.050781 5.546875 -2.695312 5.734375 -3.59375 L 7.40625 -11.421875 L 8.734375 -11.421875 L 7.0625 -3.578125 C 6.863281 -2.648438 6.597656 -1.914062 6.265625 -1.375 C 5.941406 -0.84375 5.507812 -0.453125 4.96875 -0.203125 C 4.425781 0.046875 3.734375 0.171875 2.890625 0.171875 Z M 2.890625 0.171875 "/></g></g></g><g fill="#000000" fill-opacity="1"><g transform="translate(149.130522, 332.47404)"><g><path d="M 4.078125 0.171875 C 3.410156 0.171875 2.832031 0.0390625 2.34375 -0.21875 C 1.851562 -0.476562 1.472656 -0.847656 1.203125 -1.328125 C 0.941406 -1.816406 0.8125 -2.398438 0.8125 -3.078125 C 0.8125 -3.460938 0.859375 -3.875 0.953125 -4.3125 C 1.253906 -5.769531 1.820312 -6.878906 2.65625 -7.640625 C 3.488281 -8.398438 4.546875 -8.78125 5.828125 -8.78125 C 6.492188 -8.78125 7.070312 -8.648438 7.5625 -8.390625 C 8.050781 -8.140625 8.425781 -7.769531 8.6875 -7.28125 C 8.957031 -6.789062 9.09375 -6.210938 9.09375 -5.546875 C 9.09375 -5.160156 9.046875 -4.75 8.953125 -4.3125 C 8.640625 -2.851562 8.066406 -1.738281 7.234375 -0.96875 C 6.410156 -0.207031 5.359375 0.171875 4.078125 0.171875 Z M 4.234375 -0.984375 C 5.097656 -0.984375 5.816406 -1.253906 6.390625 -1.796875 C 6.960938 -2.335938 7.367188 -3.175781 7.609375 -4.3125 C 7.691406 -4.738281 7.734375 -5.113281 7.734375 -5.4375 C 7.734375 -6.175781 7.546875 -6.726562 7.171875 -7.09375 C 6.796875 -7.457031 6.289062 -7.640625 5.65625 -7.640625 C 4.800781 -7.640625 4.082031 -7.367188 3.5 -6.828125 C 2.925781 -6.285156 2.519531 -5.445312 2.28125 -4.3125 C 2.195312 -3.882812 2.15625 -3.507812 2.15625 -3.1875 C 2.15625 -2.445312 2.34375 -1.894531 2.71875 -1.53125 C 3.09375 -1.164062 3.597656 -0.984375 4.234375 -0.984375 Z M 4.234375 -0.984375 "/></g></g></g><g fill="#000000" fill-opacity="1"><g transform="translate(159.018731, 332.47404)"><g><path d="M 3.40625 0.171875 C 2.90625 0.171875 2.472656 0.0703125 2.109375 -0.125 C 1.753906 -0.332031 1.484375 -0.617188 1.296875 -0.984375 C 1.109375 -1.347656 1.015625 -1.769531 1.015625 -2.25 C 1.015625 -2.519531 1.046875 -2.804688 1.109375 -3.109375 L 2.28125 -8.625 L 3.5625 -8.625 L 2.34375 -2.90625 C 2.3125 -2.738281 2.296875 -2.566406 2.296875 -2.390625 C 2.296875 -1.953125 2.425781 -1.601562 2.6875 -1.34375 C 2.957031 -1.082031 3.332031 -0.953125 3.8125 -0.953125 C 4.582031 -0.953125 5.242188 -1.203125 5.796875 -1.703125 C 6.347656 -2.210938 6.75 -3.046875 7 -4.203125 L 7.9375 -8.625 L 9.203125 -8.625 L 7.375 0 L 6.171875 0 L 6.46875 -1.359375 L 6.3125 -1.390625 C 5.957031 -0.859375 5.554688 -0.460938 5.109375 -0.203125 C 4.660156 0.046875 4.09375 0.171875 3.40625 0.171875 Z M 3.40625 0.171875 "/></g></g></g><g fill="#000000" fill-opacity="1"><g transform="translate(168.805409, 332.47404)"><g><path d="M 0.59375 0 L 2.421875 -8.625 L 3.625 -8.625 L 3.34375 -7.265625 L 3.5 -7.234375 C 3.8125 -7.753906 4.171875 -8.128906 4.578125 -8.359375 C 4.984375 -8.585938 5.484375 -8.703125 6.078125 -8.703125 C 6.378906 -8.703125 6.628906 -8.675781 6.828125 -8.625 C 7.023438 -8.570312 7.191406 -8.488281 7.328125 -8.375 L 6.8125 -7.265625 L 6.640625 -7.234375 C 6.359375 -7.421875 6.007812 -7.515625 5.59375 -7.515625 C 4.175781 -7.515625 3.234375 -6.421875 2.765625 -4.234375 L 1.859375 0 Z M 0.59375 0 "/></g></g></g><g fill="#000000" fill-opacity="1"><g transform="translate(175.460033, 332.47404)"><g><path d="M 0.59375 0 L 2.421875 -8.625 L 3.625 -8.625 L 3.34375 -7.265625 L 3.5 -7.234375 C 4.132812 -8.265625 5.097656 -8.78125 6.390625 -8.78125 C 7.179688 -8.78125 7.796875 -8.570312 8.234375 -8.15625 C 8.679688 -7.75 8.90625 -7.175781 8.90625 -6.4375 C 8.90625 -6.15625 8.875 -5.859375 8.8125 -5.546875 L 7.640625 0 L 6.375 0 L 7.546875 -5.515625 C 7.597656 -5.753906 7.625 -5.984375 7.625 -6.203125 C 7.625 -6.679688 7.476562 -7.046875 7.1875 -7.296875 C 6.90625 -7.546875 6.476562 -7.671875 5.90625 -7.671875 C 5.15625 -7.671875 4.507812 -7.414062 3.96875 -6.90625 C 3.4375 -6.394531 3.046875 -5.566406 2.796875 -4.421875 L 1.859375 0 Z M 0.59375 0 "/></g></g></g><g fill="#000000" fill-opacity="1"><g transform="translate(185.379485, 332.47404)"><g><path d="M 3.671875 0.171875 C 3.148438 0.171875 2.675781 0.0507812 2.25 -0.1875 C 1.820312 -0.425781 1.476562 -0.785156 1.21875 -1.265625 C 0.957031 -1.753906 0.828125 -2.351562 0.828125 -3.0625 C 0.828125 -3.539062 0.882812 -4.023438 1 -4.515625 C 1.300781 -5.929688 1.832031 -6.992188 2.59375 -7.703125 C 3.363281 -8.421875 4.359375 -8.78125 5.578125 -8.78125 C 6.128906 -8.78125 6.625 -8.648438 7.0625 -8.390625 C 7.5 -8.140625 7.804688 -7.78125 7.984375 -7.3125 L 8.15625 -7.34375 L 8.4375 -8.625 L 9.703125 -8.625 L 7.875 0 L 6.59375 0 L 6.859375 -1.265625 L 6.703125 -1.296875 C 6.398438 -0.828125 5.992188 -0.460938 5.484375 -0.203125 C 4.984375 0.046875 4.378906 0.171875 3.671875 0.171875 Z M 4.15625 -0.984375 C 4.957031 -0.984375 5.65625 -1.253906 6.25 -1.796875 C 6.851562 -2.347656 7.273438 -3.1875 7.515625 -4.3125 C 7.585938 -4.695312 7.625 -5.046875 7.625 -5.359375 C 7.625 -6.085938 7.441406 -6.648438 7.078125 -7.046875 C 6.710938 -7.441406 6.210938 -7.640625 5.578125 -7.640625 C 3.859375 -7.640625 2.757812 -6.53125 2.28125 -4.3125 C 2.207031 -3.957031 2.171875 -3.601562 2.171875 -3.25 C 2.171875 -2.769531 2.253906 -2.359375 2.421875 -2.015625 C 2.585938 -1.671875 2.816406 -1.410156 3.109375 -1.234375 C 3.410156 -1.066406 3.757812 -0.984375 4.15625 -0.984375 Z M 4.15625 -0.984375 "/></g></g></g><g fill="#000000" fill-opacity="1"><g transform="translate(195.666041, 332.47404)"><g><path d="M 2.484375 0.15625 C 2.003906 0.15625 1.625 0.015625 1.34375 -0.265625 C 1.0625 -0.546875 0.921875 -0.9375 0.921875 -1.4375 C 0.921875 -1.632812 0.945312 -1.84375 1 -2.0625 L 3.125 -12.078125 L 4.40625 -12.078125 L 2.25 -2 C 2.226562 -1.851562 2.21875 -1.738281 2.21875 -1.65625 C 2.21875 -1.4375 2.273438 -1.269531 2.390625 -1.15625 C 2.515625 -1.039062 2.679688 -0.984375 2.890625 -0.984375 C 3.035156 -0.984375 3.203125 -1.007812 3.390625 -1.0625 L 3.5 -1.03125 L 3.5 -0.03125 C 3.257812 0.09375 2.921875 0.15625 2.484375 0.15625 Z M 2.484375 0.15625 "/></g></g></g><g fill="#000000" fill-opacity="1"><g transform="translate(200.352396, 332.47404)"><g><path d="M 3.59375 -10.28125 C 3.320312 -10.28125 3.101562 -10.363281 2.9375 -10.53125 C 2.769531 -10.707031 2.6875 -10.925781 2.6875 -11.1875 C 2.6875 -11.445312 2.769531 -11.660156 2.9375 -11.828125 C 3.101562 -11.992188 3.320312 -12.078125 3.59375 -12.078125 C 3.863281 -12.078125 4.082031 -11.992188 4.25 -11.828125 C 4.425781 -11.660156 4.515625 -11.445312 4.515625 -11.1875 C 4.515625 -10.925781 4.425781 -10.707031 4.25 -10.53125 C 4.082031 -10.363281 3.863281 -10.28125 3.59375 -10.28125 Z M 0.578125 0 L 2.40625 -8.625 L 3.6875 -8.625 L 1.859375 0 Z M 0.578125 0 "/></g></g></g><g fill="#000000" fill-opacity="1"><g transform="translate(204.624796, 332.47404)"><g><path d="M 2.984375 0.171875 C 2.492188 0.171875 2.039062 0.0976562 1.625 -0.046875 C 1.21875 -0.191406 0.875 -0.390625 0.59375 -0.640625 C 0.3125 -0.890625 0.109375 -1.171875 -0.015625 -1.484375 L 0.90625 -2.265625 L 1.0625 -2.265625 C 1.257812 -1.835938 1.53125 -1.515625 1.875 -1.296875 C 2.226562 -1.085938 2.675781 -0.984375 3.21875 -0.984375 C 3.851562 -0.984375 4.363281 -1.101562 4.75 -1.34375 C 5.132812 -1.59375 5.375 -1.941406 5.46875 -2.390625 C 5.488281 -2.472656 5.5 -2.570312 5.5 -2.6875 C 5.5 -3.207031 5.15625 -3.554688 4.46875 -3.734375 L 3.109375 -4.078125 C 2.566406 -4.210938 2.140625 -4.457031 1.828125 -4.8125 C 1.515625 -5.164062 1.359375 -5.597656 1.359375 -6.109375 C 1.359375 -6.296875 1.375 -6.472656 1.40625 -6.640625 C 1.5 -7.066406 1.691406 -7.4375 1.984375 -7.75 C 2.273438 -8.070312 2.660156 -8.320312 3.140625 -8.5 C 3.628906 -8.6875 4.207031 -8.78125 4.875 -8.78125 C 5.5625 -8.78125 6.101562 -8.671875 6.5 -8.453125 C 6.894531 -8.242188 7.238281 -7.9375 7.53125 -7.53125 L 6.671875 -6.828125 L 6.515625 -6.828125 C 6.304688 -7.140625 6.050781 -7.363281 5.75 -7.5 C 5.457031 -7.644531 5.085938 -7.71875 4.640625 -7.71875 C 4.078125 -7.71875 3.617188 -7.613281 3.265625 -7.40625 C 2.921875 -7.207031 2.707031 -6.914062 2.625 -6.53125 C 2.601562 -6.445312 2.59375 -6.351562 2.59375 -6.25 C 2.59375 -5.988281 2.6875 -5.769531 2.875 -5.59375 C 3.0625 -5.425781 3.363281 -5.285156 3.78125 -5.171875 L 4.953125 -4.859375 C 5.546875 -4.703125 6 -4.445312 6.3125 -4.09375 C 6.625 -3.75 6.78125 -3.328125 6.78125 -2.828125 C 6.78125 -2.671875 6.757812 -2.488281 6.71875 -2.28125 C 6.5625 -1.539062 6.175781 -0.945312 5.5625 -0.5 C 4.945312 -0.0507812 4.085938 0.171875 2.984375 0.171875 Z M 2.984375 0.171875 "/></g></g></g><g fill="#000000" fill-opacity="1"><g transform="translate(212.5916, 332.47404)"><g><path d="M 3.859375 -7.578125 L 2.78125 -2.46875 C 2.738281 -2.289062 2.71875 -2.125 2.71875 -1.96875 C 2.71875 -1.625 2.804688 -1.375 2.984375 -1.21875 C 3.171875 -1.0625 3.425781 -0.984375 3.75 -0.984375 C 4.21875 -0.984375 4.632812 -1.113281 5 -1.375 L 5.171875 -1.375 L 5.421875 -0.453125 C 4.941406 -0.0351562 4.289062 0.171875 3.46875 0.171875 C 2.832031 0.171875 2.332031 0 1.96875 -0.34375 C 1.613281 -0.695312 1.4375 -1.175781 1.4375 -1.78125 C 1.4375 -2.007812 1.460938 -2.25 1.515625 -2.5 L 2.59375 -7.578125 L 1.09375 -7.578125 L 1.3125 -8.625 L 2.8125 -8.625 L 3.203125 -10.453125 L 4.515625 -10.65625 L 4.09375 -8.625 L 6.859375 -8.625 L 6.640625 -7.578125 Z M 3.859375 -7.578125 "/></g></g></g></svg>